#N canvas 21 373 1081 348 10;
#X obj 59 30 inlet~;
#X obj 32 283 outlet~;
#X obj 255 124 mtof;
#X floatatom 255 101 5 0 150 0 - #0-filtpitch -, f 5;
#X text 307 100 <-- cutoff (pitch units);
#X text 318 147 <-- cutoff (Hertz);
#X floatatom 255 149 5 0 0 0 - - -, f 5;
#X text 310 70 white noise \, test signal;
#X obj 244 207 bp~;
#X text 285 209 band-pass filter;
#X floatatom 266 177 5 0 1000 0 - #0-filtq -, f 5;
#X text 318 175 <-- q;
#X obj 293 10 loadbang;
#X obj 219 11 random 127;
#X obj 354 12 random 25;
#X obj 354 36 + 1;
#X floatatom 382 37 5 0 0 0 - - #0-filtq, f 5;
#X obj 38 235 *~;
#X obj 637 26 inlet~;
#X text 689 27 processing input;
#X obj 576 117 vsl 15 128 0 127 0 0 empty empty empty 0 -9 0 10 -262144
-1 -1 0 1;
#X obj 576 92 ctlin 10;
#X obj 638 116 vsl 15 128 0 127 0 0 empty empty empty 0 -9 0 10 -262144
-1 -1 0 1;
#X obj 698 116 vsl 15 128 0 127 0 0 \$0-filtpitch empty empty 0 -9
0 10 -262144 -1 -1 0 1;
#X obj 770 113 vsl 15 128 0 127 0 0 empty empty empty 0 -9 0 10 -262144
-1 -1 0 1;
#X obj 698 91 ctlin 11;
#X obj 638 91 ctlin 1;
#X obj 770 88 ctlin 2;
#X obj 575 256 / 127;
#X obj 575 280 line~ 5;
#X obj 249 235 delwrite~ \$0-maindel 500;
#X obj 38 184 delread~ \$0-maindel 500;
#X obj 637 257 / 127;
#X obj 637 279 * 2000;
#X obj 637 301 + 100;
#X obj 637 323 s \$0-deltime;
#X obj 39 162 r \$0-deltime;
#X obj 219 33 s \$0-filtpitch;
#X obj 773 253 / 127;
#X obj 773 275 * 20;
#X obj 773 297 + 5;
#X obj 773 319 s \$0-filtq;
#X text 573 67 vol out;
#X text 637 67 del time;
#X text 702 67 filt freq;
#X text 767 66 filt q;
#X obj 837 85 notein;
#X connect 0 0 8 0;
#X connect 2 0 6 0;
#X connect 3 0 2 0;
#X connect 6 0 8 1;
#X connect 8 0 30 0;
#X connect 10 0 8 2;
#X connect 12 0 13 0;
#X connect 12 0 14 0;
#X connect 13 0 37 0;
#X connect 14 0 15 0;
#X connect 15 0 16 0;
#X connect 17 0 1 0;
#X connect 20 0 28 0;
#X connect 21 0 20 0;
#X connect 22 0 32 0;
#X connect 24 0 38 0;
#X connect 25 0 23 0;
#X connect 26 0 22 0;
#X connect 27 0 24 0;
#X connect 28 0 29 0;
#X connect 29 0 17 1;
#X connect 31 0 17 0;
#X connect 32 0 33 0;
#X connect 33 0 34 0;
#X connect 34 0 35 0;
#X connect 36 0 31 0;
#X connect 38 0 39 0;
#X connect 39 0 40 0;
#X connect 40 0 41 0;
