#N canvas 79 180 593 495 10;
#X obj 29 20 inlet~;
#X obj 39 130 ctlin 10;
#X obj 269 130 ctlin 1;
#X obj 39 170 / 127;
#X obj 39 240 line~ 5;
#X obj 269 170 / 127;
#X obj 269 190 * 2000;
#X obj 269 210 + 100;
#X obj 269 280 s \$0-deltime;
#X obj 29 70 r \$0-deltime;
#X text 179 149 vol out;
#X text 413 150 del time;
#X obj 29 40 delwrite~ \$0-maindel 2100;
#X obj 28 110 vd~ \$0-maindel 500;
#X obj 29 90 line~ 5;
#X obj 38 290 notein 1;
#X obj 38 310 pack 0 0;
#X obj 38 350 tgl 15 0 empty empty empty 17 7 0 10 -262144 -1 -1 1
1;
#X obj 118 350 tgl 15 0 empty empty empty 17 7 0 10 -262144 -1 -1 0
1;
#X obj 38 330 route 0 9;
#X obj 38 370 line~ 5;
#X obj 28 270 *~;
#X obj 28 390 *~;
#X obj 28 420 outlet~;
#N canvas 1 101 450 300 test 0;
#X obj 106 108 inlet;
#X obj 198 149 osc~ 440;
#X obj 199 124 +~ 440;
#X obj 200 72 osc~ 50;
#X obj 201 99 *~ 100;
#X obj 97 223 outlet~;
#X obj 197 171 *~ 0.7;
#X obj 106 130 line~ 15;
#X obj 197 191 *~;
#X connect 0 0 7 0;
#X connect 1 0 6 0;
#X connect 2 0 1 0;
#X connect 3 0 4 0;
#X connect 4 0 2 0;
#X connect 6 0 8 0;
#X connect 7 0 8 1;
#X connect 8 0 5 0;
#X restore 118 390 pd test;
#X obj 279 230 loadbang;
#X msg 279 250 1000;
#X obj 49 190 loadbang;
#X msg 49 210 1;
#X obj 118 310 loadbang;
#X msg 118 330 0;
#X obj 42 151 hsl 128 15 0 127 0 0 empty empty empty -2 -8 0 10 -262144
-1 -1 12700 1;
#X obj 272 151 hsl 128 15 0 127 0 0 empty empty empty -2 -8 0 10 -262144
-1 -1 0 1;
#X connect 0 0 12 0;
#X connect 1 0 31 0;
#X connect 2 0 32 0;
#X connect 3 0 4 0;
#X connect 4 0 21 1;
#X connect 5 0 6 0;
#X connect 6 0 7 0;
#X connect 7 0 8 0;
#X connect 9 0 14 0;
#X connect 13 0 21 0;
#X connect 14 0 13 0;
#X connect 15 0 16 0;
#X connect 15 1 16 1;
#X connect 16 0 19 0;
#X connect 17 0 20 0;
#X connect 18 0 24 0;
#X connect 19 0 17 0;
#X connect 19 1 18 0;
#X connect 20 0 22 1;
#X connect 21 0 22 0;
#X connect 22 0 23 0;
#X connect 24 0 23 0;
#X connect 25 0 26 0;
#X connect 26 0 8 0;
#X connect 27 0 28 0;
#X connect 28 0 4 0;
#X connect 29 0 30 0;
#X connect 30 0 17 0;
#X connect 30 0 18 0;
#X connect 31 0 3 0;
#X connect 32 0 5 0;
