#N canvas 204 403 563 338 10;
#X obj 59 30 inlet~;
#X obj 243 75 vsl 15 128 0 127 0 0 empty empty empty 0 -9 0 10 -262144
-1 -1 0 1;
#X obj 243 50 ctlin 10;
#X obj 305 74 vsl 15 128 0 127 0 0 empty empty empty 0 -9 0 10 -262144
-1 -1 0 1;
#X obj 305 49 ctlin 1;
#X obj 242 214 / 127;
#X obj 242 238 line~ 5;
#X obj 304 215 / 127;
#X obj 304 237 * 2000;
#X obj 304 259 + 100;
#X obj 304 281 s \$0-deltime;
#X obj 69 137 r \$0-deltime;
#X text 240 25 vol out;
#X text 304 25 del time;
#X obj 59 54 delwrite~ \$0-maindel 2100;
#X floatatom 109 214 5 0 0 0 - - -, f 5;
#X obj 66 187 vd~ \$0-maindel 500;
#X obj 68 163 line~ 5;
#X obj 390 49 notein 1;
#X obj 390 75 pack 0 0;
#X obj 388 128 tgl 15 0 empty empty empty 17 7 0 10 -262144 -1 -1 0
1;
#X obj 464 129 tgl 15 0 empty empty empty 17 7 0 10 -262144 -1 -1 0
1;
#X obj 389 103 route 0 9;
#X obj 388 149 line~ 5;
#X obj 66 239 *~;
#X obj 66 261 *~;
#X obj 66 287 outlet~;
#N canvas 1 101 450 300 test 1;
#X obj 106 108 inlet;
#X obj 198 149 osc~ 440;
#X obj 199 124 +~ 440;
#X obj 200 72 osc~ 50;
#X obj 201 99 *~ 100;
#X obj 97 223 outlet~;
#X obj 197 171 *~ 0.7;
#X obj 106 130 line~ 15;
#X obj 197 191 *~;
#X connect 0 0 7 0;
#X connect 1 0 6 0;
#X connect 2 0 1 0;
#X connect 3 0 4 0;
#X connect 4 0 2 0;
#X connect 6 0 8 0;
#X connect 7 0 8 1;
#X connect 8 0 5 0;
#X restore 463 150 pd test;
#X connect 0 0 14 0;
#X connect 1 0 5 0;
#X connect 2 0 1 0;
#X connect 3 0 7 0;
#X connect 4 0 3 0;
#X connect 5 0 6 0;
#X connect 6 0 24 1;
#X connect 7 0 8 0;
#X connect 8 0 9 0;
#X connect 9 0 10 0;
#X connect 11 0 15 0;
#X connect 11 0 17 0;
#X connect 16 0 24 0;
#X connect 17 0 16 0;
#X connect 18 0 19 0;
#X connect 18 1 19 1;
#X connect 19 0 22 0;
#X connect 20 0 23 0;
#X connect 21 0 27 0;
#X connect 22 0 20 0;
#X connect 22 1 21 0;
#X connect 23 0 25 1;
#X connect 24 0 25 0;
#X connect 25 0 26 0;
#X connect 27 0 26 0;
