#N canvas 566 114 980 452 10;
#X obj 77 226 / 127;
#X obj 68 74 / 127;
#X obj 68 94 * 2000;
#X obj 68 114 + 100;
#X obj 35 366 delwrite~ \$0-maindel 2100;
#X obj 67 176 vd~ \$0-maindel 500;
#X obj 66 316 *~;
#X obj 68 156 line~;
#X obj 66 346 outlet~;
#X msg 77 266 \$1 5;
#X obj 77 286 line~;
#X text 116 204 feedback out;
#X obj 68 54 inlet;
#X text 109 55 delay;
#X obj 77 206 inlet;
#X msg 68 134 \$1 1;
#X obj 77 246 * 1.5;
#X obj 35 24 inlet~;
#X connect 0 0 16 0;
#X connect 1 0 2 0;
#X connect 2 0 3 0;
#X connect 3 0 15 0;
#X connect 5 0 6 0;
#X connect 6 0 4 0;
#X connect 6 0 8 0;
#X connect 7 0 5 0;
#X connect 9 0 10 0;
#X connect 10 0 6 1;
#X connect 12 0 1 0;
#X connect 14 0 0 0;
#X connect 15 0 7 0;
#X connect 16 0 9 0;
#X connect 17 0 4 0;
