#N canvas 1 61 864 394 10;
#X obj 603 68 inlet~;
#X obj 39 210 / 127;
#X obj 603 164 / 127;
#X obj 603 184 * 2000;
#X obj 603 204 + 100;
#X obj 603 274 s \$0-deltime;
#X obj 29 45 r \$0-deltime;
#X text 747 144 del time;
#X obj 603 88 delwrite~ \$0-maindel 2100;
#X obj 28 110 vd~ \$0-maindel 500;
#X obj 27 270 *~;
#X obj 613 224 loadbang;
#X msg 613 244 1000;
#X obj 42 151 hsl 128 15 0 127 0 0 empty empty empty -2 -8 0 10 -262144
-1 -1 8400 1;
#X obj 606 145 hsl 128 15 0 127 0 0 empty empty empty -2 -8 0 10 -262144
-1 -1 5300 1;
#X msg 29 68 \$1 5;
#X obj 29 90 line~;
#X obj 603 124 ctlin 3;
#X obj 28 340 outlet~;
#X obj 39 130 ctlin 12;
#X obj 298 70 notein 1;
#X obj 298 90 pack 0 0;
#X obj 298 190 tgl 15 0 empty empty empty 17 7 0 10 -262144 -1 -1 1
1;
#X msg 298 210 \$1 5;
#X obj 298 230 line~;
#X obj 308 150 loadbang;
#X text 328 190 outgoing killswitch (default on);
#X msg 308 170 1;
#X obj 298 130 route 2 11;
#X msg 39 230 \$1 5;
#X obj 39 250 line~;
#X obj 49 170 loadbang;
#X msg 49 190 127;
#X text 179 149 feedback out;
#X obj 27 300 *~;
#X connect 0 0 8 0;
#X connect 1 0 29 0;
#X connect 2 0 3 0;
#X connect 3 0 4 0;
#X connect 4 0 5 0;
#X connect 6 0 15 0;
#X connect 9 0 10 0;
#X connect 10 0 34 0;
#X connect 11 0 12 0;
#X connect 12 0 5 0;
#X connect 13 0 1 0;
#X connect 14 0 2 0;
#X connect 15 0 16 0;
#X connect 16 0 9 0;
#X connect 17 0 14 0;
#X connect 19 0 13 0;
#X connect 20 0 21 0;
#X connect 20 1 21 1;
#X connect 21 0 28 0;
#X connect 22 0 23 0;
#X connect 23 0 24 0;
#X connect 24 0 34 1;
#X connect 25 0 27 0;
#X connect 27 0 22 0;
#X connect 28 0 22 0;
#X connect 29 0 30 0;
#X connect 30 0 10 1;
#X connect 31 0 32 0;
#X connect 32 0 1 0;
#X connect 34 0 18 0;
