#N canvas 264 155 813 478 10;
#X obj 71 35 inlet~;
#X obj 92 426 outlet~;
#X obj 151 133 mtof;
#X floatatom 151 113 5 0 150 0 - #0-filtpitch -, f 5;
#X text 193 111 <-- cutoff (pitch units);
#X text 211 152 <-- cutoff (Hertz);
#X floatatom 151 153 8 0 0 0 - - -, f 8;
#X obj 137 302 bp~;
#X text 179 302 band-pass filter;
#X floatatom 183 256 5 0 1000 0 - #0-filtq -, f 5;
#X text 235 254 <-- q;
#X obj 289 27 loadbang;
#X obj 289 51 random 127;
#X obj 424 52 random 25;
#X obj 424 76 + 1;
#X floatatom 452 77 5 0 0 0 - - #0-filtq, f 5;
#X obj 137 345 *~;
#X obj 548 108 vsl 15 128 0 127 0 0 \$0-filtpitch empty empty 0 -9
0 10 -262144 -1 -1 4200 1;
#X obj 631 108 vsl 15 128 0 127 0 0 empty empty empty 0 -9 0 10 -262144
-1 -1 7300 1;
#X obj 548 83 ctlin 11;
#X obj 631 83 ctlin 2;
#X obj 289 73 s \$0-filtpitch;
#X obj 634 248 / 127;
#X obj 634 270 * 20;
#X obj 634 292 + 5;
#X obj 634 314 s \$0-filtq;
#X text 552 59 filt freq;
#X text 628 61 filt q;
#X obj 301 285 notein 1;
#X obj 301 311 pack 0 0;
#X obj 296 365 tgl 15 0 empty empty empty 17 7 0 10 -262144 -1 -1 0
1;
#X obj 379 364 tgl 15 0 empty empty empty 17 7 0 10 -262144 -1 -1 0
1;
#X obj 300 339 route 1 10;
#X obj 297 394 line~ 5;
#N canvas 1 101 450 300 test2 0;
#X obj 106 108 inlet;
#X obj 97 223 outlet~;
#X obj 197 171 *~ 0.7;
#X obj 198 149 osc~ 550;
#X obj 199 124 +~ 660;
#X obj 201 99 *~ 120;
#X obj 200 72 osc~ 75;
#X obj 107 132 line~ 15;
#X obj 197 191 *~;
#X connect 0 0 7 0;
#X connect 2 0 8 0;
#X connect 3 0 2 0;
#X connect 4 0 3 0;
#X connect 5 0 4 0;
#X connect 6 0 5 0;
#X connect 7 0 8 1;
#X connect 8 0 1 0;
#X restore 376 388 pd test2;
#X obj 441 273 loadbang;
#X msg 443 310 0;
#X obj 541 375 - 1;
#X obj 543 406 abs;
#X obj 543 431 line~ 5;
#X obj 79 355 *~;
#X msg 151 173 \$1 1;
#X obj 151 193 line;
#X connect 0 0 7 0;
#X connect 0 0 40 0;
#X connect 2 0 6 0;
#X connect 3 0 2 0;
#X connect 6 0 41 0;
#X connect 7 0 16 0;
#X connect 9 0 7 2;
#X connect 11 0 12 0;
#X connect 11 0 13 0;
#X connect 12 0 21 0;
#X connect 13 0 14 0;
#X connect 14 0 15 0;
#X connect 16 0 1 0;
#X connect 18 0 22 0;
#X connect 19 0 17 0;
#X connect 20 0 18 0;
#X connect 22 0 23 0;
#X connect 23 0 24 0;
#X connect 24 0 25 0;
#X connect 28 0 29 0;
#X connect 28 1 29 1;
#X connect 29 0 32 0;
#X connect 30 0 33 0;
#X connect 30 0 37 0;
#X connect 31 0 34 0;
#X connect 32 0 30 0;
#X connect 32 1 31 0;
#X connect 33 0 16 1;
#X connect 34 0 1 0;
#X connect 35 0 36 0;
#X connect 36 0 30 0;
#X connect 36 0 31 0;
#X connect 37 0 38 0;
#X connect 38 0 39 0;
#X connect 39 0 40 1;
#X connect 40 0 1 0;
#X connect 41 0 42 0;
#X connect 42 0 7 1;
