#N canvas -15 282 1024 684 10;
#X obj 150 83 sel 1 0;
#X obj 180 103 timer;
#X obj 180 123 t b 0;
#X obj 180 143 metro;
#X obj 180 183 *~;
#X obj 320 83 - 1;
#X obj 320 163 abs;
#X obj 50 43 inlet~;
#X obj 51 478 outlet~;
#X obj 150 223 table \$0-stutter 88200;
#X obj 150 203 tabwrite~ \$0-stutter;
#X obj 180 163 tabplay~ \$0-stutter;
#X obj 150 103 t b;
#X obj 150 63 t 0 0;
#X obj 150 323 / 127;
#X obj 150 383 line~ 5;
#X obj 370 243 notein 1;
#X obj 370 263 pack 0 0;
#X obj 370 323 tgl 15 0 empty empty empty 17 7 0 10 -262144 -1 -1 0
1;
#X obj 370 342 s \$0-record;
#X obj 120 43 r \$0-record;
#X obj 51 428 *~;
#X obj 121 428 *~;
#X obj 210 343 - 1;
#X obj 210 363 abs;
#X obj 210 383 line~ 5;
#X obj 120 63 *~;
#X obj 460 243 loadbang;
#X msg 460 283 0;
#X obj 153 284 hsl 128 15 0 127 0 0 empty empty empty -2 -8 0 10 -262144
-1 -1 0 1;
#X obj 50 183 *~ 1;
#X obj 120 203 *~ 1;
#X text 291 282 wet/dry;
#X obj 370 283 route 3 12;
#X obj 150 243 ctlin 13;
#X obj 220 243 ctlin 4;
#X text 452 117 currently just a second stutter \, will write something
granular tonight. ph.;
#X connect 0 0 12 0;
#X connect 0 0 1 0;
#X connect 0 1 1 1;
#X connect 1 0 2 0;
#X connect 2 0 3 0;
#X connect 2 1 3 1;
#X connect 3 0 11 0;
#X connect 4 0 31 0;
#X connect 5 0 6 0;
#X connect 6 0 4 1;
#X connect 7 0 26 0;
#X connect 7 0 30 0;
#X connect 11 0 4 0;
#X connect 12 0 10 0;
#X connect 13 0 0 0;
#X connect 13 1 5 0;
#X connect 14 0 15 0;
#X connect 14 0 23 0;
#X connect 15 0 22 1;
#X connect 16 0 17 0;
#X connect 16 1 17 1;
#X connect 17 0 33 0;
#X connect 18 0 19 0;
#X connect 20 0 13 0;
#X connect 20 0 26 1;
#X connect 21 0 8 0;
#X connect 22 0 8 0;
#X connect 23 0 24 0;
#X connect 24 0 25 0;
#X connect 25 0 21 1;
#X connect 26 0 31 0;
#X connect 27 0 28 0;
#X connect 28 0 18 0;
#X connect 28 0 14 0;
#X connect 29 0 14 0;
#X connect 30 0 10 0;
#X connect 30 0 21 0;
#X connect 31 0 22 0;
#X connect 33 1 18 0;
#X connect 34 0 29 0;
