#N canvas 83 198 813 458 10;
#X obj 40 32 inlet~;
#X obj 40 413 outlet~;
#X obj 90 112 mtof;
#X obj 90 172 bp~;
#X obj 100 72 loadbang;
#X obj 100 92 random 127;
#X obj 90 343 *~;
#X obj 90 32 ctlin 11;
#X obj 320 32 ctlin 2;
#X obj 320 72 / 127;
#X obj 320 92 * 20;
#X obj 320 152 + 5;
#X text 226 54 filt freq;
#X text 456 52 filt q;
#X obj 100 193 notein 1;
#X obj 100 213 pack 0 0;
#X obj 100 253 tgl 15 0 empty empty empty 17 7 0 10 -262144 -1 -1 1
1;
#X obj 220 253 tgl 15 0 empty empty empty 17 7 0 10 -262144 -1 -1 0
1;
#X obj 100 233 route 1 10;
#X obj 100 313 line~ 5;
#N canvas 1 101 450 300 test2 0;
#X obj 106 108 inlet;
#X obj 97 223 outlet~;
#X obj 197 171 *~ 0.7;
#X obj 198 149 osc~ 550;
#X obj 199 124 +~ 660;
#X obj 201 99 *~ 120;
#X obj 200 72 osc~ 75;
#X obj 107 132 line~ 15;
#X obj 197 191 *~;
#X connect 0 0 7 0;
#X connect 2 0 8 0;
#X connect 3 0 2 0;
#X connect 4 0 3 0;
#X connect 5 0 4 0;
#X connect 6 0 5 0;
#X connect 7 0 8 1;
#X connect 8 0 1 0;
#X restore 220 343 pd test2;
#X obj 220 193 loadbang;
#X msg 220 233 0;
#X obj 160 273 - 1;
#X obj 160 293 abs;
#X obj 160 313 line~ 5;
#X obj 40 343 *~;
#X msg 90 132 \$1 1;
#X obj 90 152 line;
#X obj 323 52 hsl 128 15 0 127 0 0 empty empty empty -2 -8 0 10 -262144
-1 -1 0 1;
#X obj 370 91 random 25;
#X obj 370 131 - 4;
#X obj 93 52 hsl 128 15 0 127 0 0 empty empty empty -2 -8 0 10 -262144
-1 -1 0 1;
#X connect 0 0 3 0;
#X connect 0 0 26 0;
#X connect 2 0 27 0;
#X connect 3 0 6 0;
#X connect 4 0 5 0;
#X connect 4 0 30 0;
#X connect 5 0 2 0;
#X connect 6 0 1 0;
#X connect 7 0 32 0;
#X connect 8 0 29 0;
#X connect 9 0 10 0;
#X connect 10 0 11 0;
#X connect 11 0 3 2;
#X connect 14 0 15 0;
#X connect 14 1 15 1;
#X connect 15 0 18 0;
#X connect 16 0 19 0;
#X connect 16 0 23 0;
#X connect 17 0 20 0;
#X connect 18 0 16 0;
#X connect 18 1 17 0;
#X connect 19 0 6 1;
#X connect 20 0 1 0;
#X connect 21 0 22 0;
#X connect 22 0 16 0;
#X connect 22 0 17 0;
#X connect 23 0 24 0;
#X connect 24 0 25 0;
#X connect 25 0 26 1;
#X connect 26 0 1 0;
#X connect 27 0 28 0;
#X connect 28 0 3 1;
#X connect 29 0 9 0;
#X connect 30 0 31 0;
#X connect 31 0 11 0;
#X connect 32 0 2 0;
