#N canvas 86 112 876 598 10;
#X text 36 96 reverb \, grain stuff goes here;
#X obj 32 25 inlet~;
#X obj 378 97 vsl 15 128 0 127 0 0 empty empty empty 0 -9 0 10 -262144
-1 -1 0 1;
#X obj 315 237 / 127;
#X obj 315 261 line~ 5;
#X obj 377 238 / 127;
#X text 313 48 vol out;
#X text 377 48 del time;
#X obj 463 72 notein 1;
#X obj 463 98 pack 0 0;
#X obj 461 151 tgl 15 0 empty empty empty 17 7 0 10 -262144 -1 -1 0
1;
#X obj 537 152 tgl 15 0 empty empty empty 17 7 0 10 -262144 -1 -1 0
1;
#X obj 461 172 line~ 5;
#X obj 537 171 s \$0-record;
#X obj 376 261 line~ 5;
#X obj 316 73 ctlin 13;
#X obj 378 72 ctlin 4;
#X obj 462 126 route 3 12;
#X obj 272 277 *~;
#X obj 123 469 *~;
#X obj 52 535 outlet~;
#X obj 196 159 hsl 128 15 0 127 0 0 empty empty empty -2 -8 0 10 -262144
-1 -1 0 1;
#X text 559 156 retirgger;
#X obj 42 443 *~;
#X obj 510 211 - 1;
#X obj 520 260 abs;
#X obj 480 317 line~ 5;
#X obj 617 98 loadbang;
#X msg 662 124 0;
#X connect 1 0 23 0;
#X connect 2 0 5 0;
#X connect 3 0 4 0;
#X connect 4 0 18 1;
#X connect 5 0 14 0;
#X connect 8 0 9 0;
#X connect 8 1 9 1;
#X connect 9 0 17 0;
#X connect 10 0 12 0;
#X connect 10 0 24 0;
#X connect 11 0 13 0;
#X connect 12 0 19 1;
#X connect 15 0 21 0;
#X connect 16 0 2 0;
#X connect 17 0 10 0;
#X connect 17 1 11 0;
#X connect 18 0 19 0;
#X connect 19 0 20 0;
#X connect 21 0 3 0;
#X connect 23 0 20 0;
#X connect 24 0 25 0;
#X connect 25 0 26 0;
#X connect 26 0 23 1;
#X connect 27 0 28 0;
#X connect 28 0 11 0;
#X connect 28 0 10 0;
