#N canvas 101 171 794 361 10;
#X text 36 96 reverb \, grain stuff goes here;
#X obj 32 25 inlet~;
#X obj 316 98 vsl 15 128 0 127 0 0 empty empty empty 0 -9 0 10 -262144
-1 -1 0 1;
#X obj 378 97 vsl 15 128 0 127 0 0 empty empty empty 0 -9 0 10 -262144
-1 -1 0 1;
#X obj 315 237 / 127;
#X obj 315 261 line~ 5;
#X obj 377 238 / 127;
#X text 313 48 vol out;
#X text 377 48 del time;
#X obj 463 72 notein 1;
#X obj 463 98 pack 0 0;
#X obj 461 151 tgl 15 0 empty empty empty 17 7 0 10 -262144 -1 -1 0
1;
#X obj 537 152 tgl 15 0 empty empty empty 17 7 0 10 -262144 -1 -1 0
1;
#X obj 461 172 line~ 5;
#X obj 537 171 s \$0-record;
#X obj 376 261 line~ 5;
#X obj 316 73 ctlin 13;
#X obj 378 72 ctlin 4;
#X obj 462 126 route 3 12;
#X obj 35 239 *~;
#X obj 35 261 *~;
#X obj 35 283 outlet~;
#X connect 2 0 4 0;
#X connect 3 0 6 0;
#X connect 4 0 5 0;
#X connect 5 0 19 1;
#X connect 6 0 15 0;
#X connect 9 0 10 0;
#X connect 9 1 10 1;
#X connect 10 0 18 0;
#X connect 11 0 13 0;
#X connect 12 0 14 0;
#X connect 13 0 20 1;
#X connect 16 0 2 0;
#X connect 17 0 3 0;
#X connect 18 0 11 0;
#X connect 18 1 12 0;
#X connect 19 0 20 0;
#X connect 20 0 21 0;
