#N canvas 1 65 647 563 10;
#X obj 40 32 inlet~;
#X obj 40 483 outlet~;
#X obj 90 112 mtof;
#X obj 90 172 bp~;
#X obj 100 72 loadbang;
#X obj 100 92 random 127;
#X obj 90 413 *~;
#X obj 90 32 ctlin 11;
#X obj 320 32 ctlin 2;
#X obj 320 72 / 127;
#X obj 320 92 * 20;
#X obj 320 152 + 5;
#X text 226 54 filt freq;
#X text 456 52 filt q;
#X obj 100 193 notein 1;
#X obj 100 213 pack 0 0;
#X obj 100 253 tgl 15 0 empty empty empty 17 7 0 10 -262144 -1 -1 0
1;
#X obj 166 181 loadbang;
#X msg 171 207 0;
#X obj 153 295 - 1;
#X obj 153 315 abs;
#X obj 40 413 *~;
#X msg 90 132 \$1 1;
#X obj 90 152 line;
#X obj 323 52 hsl 128 15 0 127 0 0 empty empty empty -2 -8 0 10 -262144
-1 -1 7300 1;
#X obj 370 91 random 25;
#X obj 370 131 - 4;
#X obj 93 52 hsl 128 15 0 127 0 0 empty empty empty -2 -8 0 10 -262144
-1 -1 5600 1;
#X msg 98 346 \$1 5;
#X msg 158 346 \$1 5;
#X obj 100 383 line~;
#X obj 160 383 line~;
#X obj 100 233 route 1;
#X text 131 257 filter on (default off);
#X connect 0 0 3 0;
#X connect 0 0 21 0;
#X connect 2 0 22 0;
#X connect 3 0 6 0;
#X connect 4 0 5 0;
#X connect 4 0 25 0;
#X connect 5 0 2 0;
#X connect 6 0 1 0;
#X connect 7 0 27 0;
#X connect 8 0 24 0;
#X connect 9 0 10 0;
#X connect 10 0 11 0;
#X connect 11 0 3 2;
#X connect 14 0 15 0;
#X connect 14 1 15 1;
#X connect 15 0 32 0;
#X connect 16 0 19 0;
#X connect 16 0 28 0;
#X connect 17 0 18 0;
#X connect 18 0 16 0;
#X connect 19 0 20 0;
#X connect 20 0 29 0;
#X connect 21 0 1 0;
#X connect 22 0 23 0;
#X connect 23 0 3 1;
#X connect 24 0 9 0;
#X connect 25 0 26 0;
#X connect 26 0 11 0;
#X connect 27 0 2 0;
#X connect 28 0 30 0;
#X connect 29 0 31 0;
#X connect 30 0 6 1;
#X connect 31 0 21 1;
#X connect 32 0 16 0;
