#N canvas 92 124 538 349 10;
#X obj 269 62 vsl 15 128 0 127 0 0 empty empty empty 0 -9 0 10 -262144
-1 -1 4300 1;
#X obj 331 61 vsl 15 128 0 127 0 0 empty empty empty 0 -9 0 10 -262144
-1 -1 0 1;
#X obj 268 201 / 127;
#X obj 330 202 / 127;
#X text 266 12 vol out;
#X text 330 12 feedback;
#X obj 131 18 notein 1;
#X obj 131 38 pack 0 0;
#X obj 163 95 tgl 15 0 empty empty empty 17 7 0 10 -262144 -1 -1 0
1;
#X obj 201 38 loadbang;
#X msg 201 58 0;
#X obj 268 223 s \$0-vol;
#X obj 127 83 tgl 15 0 empty empty empty 17 7 0 10 -262144 -1 -1 0
1;
#X obj 330 224 * 100;
#X obj 269 37 ctlin 18;
#X obj 331 36 ctlin 9;
#X obj 131 58 route 8 17;
#X obj 12 10 inlet~;
#X obj 16 69 *~;
#X obj 52 57 line~ 5;
#X obj 14 166 *~;
#X obj 15 231 outlet~;
#X obj 47 106 r \$0-vol;
#X obj 140 175 osc~ 440;
#X obj 141 216 *~ 0.1;
#X obj 142 241 *~;
#X msg 159 114 \$1 15;
#X obj 173 240 line~;
#X obj 409 58 loadbang;
#X msg 409 86 1;
#X msg 60 34 \$1 5;
#X msg 47 128 \$1 1;
#X obj 47 150 line~;
#X obj 409 108 s \$0-vol;
#X connect 0 0 2 0;
#X connect 1 0 3 0;
#X connect 2 0 11 0;
#X connect 3 0 13 0;
#X connect 6 0 7 0;
#X connect 6 1 7 1;
#X connect 7 0 16 0;
#X connect 8 0 26 0;
#X connect 9 0 10 0;
#X connect 10 0 8 0;
#X connect 12 0 30 0;
#X connect 14 0 0 0;
#X connect 15 0 1 0;
#X connect 16 0 12 0;
#X connect 16 1 8 0;
#X connect 17 0 18 0;
#X connect 18 0 20 0;
#X connect 19 0 18 1;
#X connect 20 0 21 0;
#X connect 22 0 31 0;
#X connect 23 0 24 0;
#X connect 24 0 25 0;
#X connect 25 0 21 0;
#X connect 26 0 27 0;
#X connect 27 0 25 1;
#X connect 28 0 29 0;
#X connect 29 0 12 0;
#X connect 29 0 33 0;
#X connect 30 0 19 0;
#X connect 31 0 32 0;
#X connect 32 0 20 1;
