#N canvas 39 236 934 549 10;
#X obj 84 54 sel 1 0;
#X obj 114 74 timer;
#X obj 114 94 t b 0;
#X obj 114 114 metro;
#X obj 84 154 *~;
#X obj 224 54 - 1;
#X obj 224 134 abs;
#X obj 38 13 inlet~;
#X obj 306 473 outlet~;
#X obj 39 409 table \$0-stutter 88200;
#X obj 39 389 tabwrite~ \$0-stutter;
#X obj 84 134 tabplay~ \$0-stutter;
#X obj 84 74 t b;
#X obj 84 34 t 0 0;
#X obj 316 98 vsl 15 128 0 127 0 0 empty empty empty 0 -9 0 10 -262144
-1 -1 12700 1;
#X obj 315 237 / 127;
#X obj 315 261 line~ 5;
#X text 313 48 vol out;
#X text 377 48 del time;
#X obj 463 72 notein 1;
#X obj 463 98 pack 0 0;
#X obj 537 152 tgl 15 0 empty empty empty 17 7 0 10 -262144 -1 -1 0
1;
#X obj 462 126 route 2 11;
#X obj 316 73 ctlin 12;
#X obj 378 72 ctlin 3;
#X obj 537 171 s \$0-record;
#X obj 84 12 r \$0-record;
#X obj 306 418 *~;
#X obj 398 428 *~;
#X text 624 246 two controls;
#X text 624 288 wet dry and sample;
#X obj 415 297 - 1;
#X obj 416 325 abs;
#X floatatom 418 349 5 0 0 0 - - -, f 5;
#X obj 407 376 line~ 5;
#X obj 203 173 *~;
#X connect 0 0 12 0;
#X connect 0 0 1 0;
#X connect 0 1 1 1;
#X connect 1 0 2 0;
#X connect 2 0 3 0;
#X connect 2 1 3 1;
#X connect 3 0 11 0;
#X connect 4 0 28 0;
#X connect 5 0 6 0;
#X connect 6 0 4 1;
#X connect 7 0 27 0;
#X connect 7 0 10 0;
#X connect 7 0 35 0;
#X connect 11 0 4 0;
#X connect 12 0 10 0;
#X connect 13 0 0 0;
#X connect 13 1 5 0;
#X connect 14 0 15 0;
#X connect 15 0 16 0;
#X connect 15 0 31 0;
#X connect 16 0 28 1;
#X connect 19 0 20 0;
#X connect 19 1 20 1;
#X connect 20 0 22 0;
#X connect 21 0 25 0;
#X connect 22 1 21 0;
#X connect 23 0 14 0;
#X connect 26 0 13 0;
#X connect 26 0 35 1;
#X connect 27 0 8 0;
#X connect 28 0 8 0;
#X connect 31 0 32 0;
#X connect 32 0 33 0;
#X connect 33 0 34 0;
#X connect 34 0 27 1;
#X connect 35 0 28 0;
