#N canvas 89 23 1121 751 10;
#X text 337 79 other input;
#X obj 606 126 bng 15 250 50 0 empty empty empty 17 7 0 10 -262144
-1 -1;
#X msg 634 194 1 0;
#X msg 591 199 0 100;
#X floatatom 689 299 5 0 0 0 - - -, f 5;
#X obj 613 235 line;
#X obj 640 376 bng 15 250 50 0 empty empty empty 17 7 0 10 -262144
-1 -1;
#X obj 608 148 t b b b;
#X obj 596 33 tgl 15 0 empty empty empty 17 7 0 10 -262144 -1 -1 0
1;
#X obj 435 191 env~;
#X floatatom 427 258 5 0 0 0 - - -, f 5;
#X obj 550 260 *~ 1;
#X obj 627 50 sel 1 0;
#X obj 690 129 bng 15 250 50 0 empty empty empty 17 7 0 10 -262144
-1 -1;
#X obj 722 127 timer;
#X obj 713 87 bng 15 250 50 0 empty empty empty 17 7 0 10 -262144 -1
-1;
#X obj 748 90 bng 15 250 50 0 empty empty empty 17 7 0 10 -262144 -1
-1;
#X obj 724 162 bng 15 250 50 0 empty empty empty 17 7 0 10 -262144
-1 -1;
#X floatatom 755 164 5 0 0 0 - - -, f 5;
#X obj 739 197 t b 0;
#X obj 749 232 metro;
#X obj 750 285 bng 15 250 50 0 empty empty empty 17 7 0 10 -262144
-1 -1;
#X obj 777 439 bng 15 250 50 0 empty empty empty 17 7 0 10 -262144
-1 -1;
#X obj 875 524 *~;
#X obj 958 449 - 1;
#X obj 960 481 abs;
#X obj 472 94 inlet~;
#X obj 878 547 outlet~;
#X obj 590 455 tabwrite~ \$0-stutter1;
#X obj 162 122 table \$0-stutter1 88200;
#X obj 767 471 tabplay~ \$0-stutter1;
#X connect 1 0 7 0;
#X connect 2 0 5 0;
#X connect 3 0 5 0;
#X connect 5 0 4 0;
#X connect 6 0 28 0;
#X connect 7 0 6 0;
#X connect 7 1 3 0;
#X connect 7 2 2 0;
#X connect 8 0 12 0;
#X connect 8 0 24 0;
#X connect 9 0 10 0;
#X connect 11 0 28 0;
#X connect 12 0 1 0;
#X connect 12 0 15 0;
#X connect 12 1 13 0;
#X connect 12 1 16 0;
#X connect 14 0 17 0;
#X connect 14 0 18 0;
#X connect 14 0 19 0;
#X connect 15 0 14 0;
#X connect 16 0 14 1;
#X connect 19 0 20 0;
#X connect 19 1 20 1;
#X connect 20 0 21 0;
#X connect 21 0 22 0;
#X connect 22 0 30 0;
#X connect 23 0 27 0;
#X connect 24 0 25 0;
#X connect 25 0 23 1;
#X connect 26 0 9 0;
#X connect 26 0 11 0;
#X connect 30 0 23 0;
