#N canvas 53 208 857 337 10;
#X obj 84 54 sel 1 0;
#X obj 114 74 timer;
#X obj 114 94 t b 0;
#X obj 114 114 metro;
#X obj 84 154 *~;
#X obj 224 54 - 1;
#X obj 224 134 abs;
#X obj 38 13 inlet~;
#X obj 84 219 outlet~;
#X obj 38 285 table \$0-stutter 88200;
#X obj 38 265 tabwrite~ \$0-stutter;
#X obj 84 134 tabplay~ \$0-stutter;
#X obj 84 74 t b;
#X obj 84 34 t 0 0;
#X text 279 15 question of taste \, seperate feedback loops with individual
stutters or single feed with seperate stutters? hmmmm;
#X obj 316 98 vsl 15 128 0 127 0 0 empty empty empty 0 -9 0 10 -262144
-1 -1 0 1;
#X obj 378 97 vsl 15 128 0 127 0 0 empty empty empty 0 -9 0 10 -262144
-1 -1 0 1;
#X obj 315 237 / 127;
#X obj 315 261 line~ 5;
#X obj 377 238 / 127;
#X text 313 48 vol out;
#X text 377 48 del time;
#X obj 463 72 notein 1;
#X obj 463 98 pack 0 0;
#X obj 461 151 tgl 15 0 empty empty empty 17 7 0 10 -262144 -1 -1 0
1;
#X obj 537 152 tgl 15 0 empty empty empty 17 7 0 10 -262144 -1 -1 0
1;
#X obj 461 172 line~ 5;
#X obj 462 126 route 2 11;
#X obj 316 73 ctlin 12;
#X obj 378 72 ctlin 3;
#X obj 537 171 s \$0-record;
#X obj 84 176 *~;
#X obj 84 12 r \$0-record;
#X obj 84 198 *~;
#X obj 376 261 line~ 5;
#X obj 38 35 *~;
#X connect 0 0 12 0;
#X connect 0 0 1 0;
#X connect 0 1 1 1;
#X connect 1 0 2 0;
#X connect 2 0 3 0;
#X connect 2 1 3 1;
#X connect 3 0 11 0;
#X connect 4 0 31 0;
#X connect 5 0 6 0;
#X connect 6 0 4 1;
#X connect 7 0 35 0;
#X connect 11 0 4 0;
#X connect 12 0 10 0;
#X connect 13 0 0 0;
#X connect 13 1 5 0;
#X connect 15 0 17 0;
#X connect 16 0 19 0;
#X connect 17 0 18 0;
#X connect 18 0 33 1;
#X connect 19 0 34 0;
#X connect 22 0 23 0;
#X connect 22 1 23 1;
#X connect 23 0 27 0;
#X connect 24 0 26 0;
#X connect 25 0 30 0;
#X connect 26 0 31 1;
#X connect 27 0 24 0;
#X connect 27 1 25 0;
#X connect 28 0 15 0;
#X connect 29 0 16 0;
#X connect 31 0 33 0;
#X connect 32 0 13 0;
#X connect 33 0 8 0;
#X connect 34 0 35 1;
#X connect 35 0 10 0;
