#N canvas 80 241 857 337 10;
#X obj 88 125 sel 1 0;
#X obj 118 145 timer;
#X obj 118 165 t b 0;
#X obj 118 185 metro;
#X obj 88 225 *~;
#X obj 228 125 - 1;
#X obj 228 205 abs;
#X obj 38 45 inlet~;
#X obj 88 245 outlet~;
#X obj 38 285 table \$0-stutter 88200;
#X obj 38 265 tabwrite~ \$0-stutter;
#X obj 88 205 tabplay~ \$0-stutter;
#X obj 88 145 t b;
#X obj 88 105 t 0 0;
#X text 318 161 question of taste \, seperate feedback loops with individual
stutters or single feed with seperate stutters? hmmmm;
#X obj 88 45 notein;
#X obj 88 65 pack 0 0;
#X obj 88 85 route 9;
#X connect 0 0 12 0;
#X connect 0 0 1 0;
#X connect 0 1 1 1;
#X connect 1 0 2 0;
#X connect 2 0 3 0;
#X connect 2 1 3 1;
#X connect 3 0 11 0;
#X connect 4 0 8 0;
#X connect 5 0 6 0;
#X connect 6 0 4 1;
#X connect 7 0 10 0;
#X connect 11 0 4 0;
#X connect 12 0 10 0;
#X connect 13 0 0 0;
#X connect 13 1 5 0;
#X connect 15 0 16 0;
#X connect 15 1 16 1;
#X connect 16 0 17 0;
#X connect 17 0 13 0;
