#N canvas 1 57 703 526 10;
#X obj 133 71 sel 1 0;
#X obj 163 91 timer;
#X obj 163 111 t b 0;
#X obj 163 131 metro;
#X obj 163 171 *~;
#X obj 303 71 - 1;
#X obj 303 151 abs;
#X obj 33 31 inlet~;
#X obj 34 466 outlet~;
#X obj 133 211 table \$0-stutter 88200;
#X obj 133 191 tabwrite~ \$0-stutter;
#X obj 163 151 tabplay~ \$0-stutter;
#X obj 133 91 t b;
#X obj 133 51 t 0 0;
#X obj 133 311 / 127;
#X obj 133 371 line~ 5;
#X obj 353 231 notein 1;
#X obj 353 251 pack 0 0;
#X obj 353 311 tgl 15 0 empty empty empty 17 7 0 10 -262144 -1 -1 0
1;
#X obj 353 271 route 2 11;
#X obj 133 231 ctlin 12;
#X obj 203 231 ctlin 3;
#X obj 353 330 s \$0-record;
#X obj 103 31 r \$0-record;
#X obj 34 416 *~;
#X obj 104 416 *~;
#X obj 193 331 - 1;
#X obj 193 351 abs;
#X obj 193 371 line~ 5;
#X obj 103 51 *~;
#X obj 443 231 loadbang;
#X msg 443 271 0;
#X obj 136 272 hsl 128 15 0 127 0 0 empty empty empty -2 -8 0 10 -262144
-1 -1 0 1;
#X obj 33 171 *~ 1;
#X obj 103 191 *~ 1;
#X text 274 270 wet/dry;
#X connect 0 0 12 0;
#X connect 0 0 1 0;
#X connect 0 1 1 1;
#X connect 1 0 2 0;
#X connect 2 0 3 0;
#X connect 2 1 3 1;
#X connect 3 0 11 0;
#X connect 4 0 34 0;
#X connect 5 0 6 0;
#X connect 6 0 4 1;
#X connect 7 0 29 0;
#X connect 7 0 33 0;
#X connect 11 0 4 0;
#X connect 12 0 10 0;
#X connect 13 0 0 0;
#X connect 13 1 5 0;
#X connect 14 0 15 0;
#X connect 14 0 26 0;
#X connect 15 0 25 1;
#X connect 16 0 17 0;
#X connect 16 1 17 1;
#X connect 17 0 19 0;
#X connect 18 0 22 0;
#X connect 19 1 18 0;
#X connect 20 0 32 0;
#X connect 23 0 13 0;
#X connect 23 0 29 1;
#X connect 24 0 8 0;
#X connect 25 0 8 0;
#X connect 26 0 27 0;
#X connect 27 0 28 0;
#X connect 28 0 24 1;
#X connect 29 0 34 0;
#X connect 30 0 31 0;
#X connect 31 0 18 0;
#X connect 31 0 14 0;
#X connect 32 0 14 0;
#X connect 33 0 10 0;
#X connect 33 0 24 0;
#X connect 34 0 25 0;
