#N canvas 527 78 780 439 10;
#X obj 46 84 adc~;
#N canvas 1 93 450 300 test 0;
#X obj 106 108 inlet;
#X obj 198 149 osc~ 440;
#X obj 197 171 *~ 0.6;
#X obj 199 124 +~ 440;
#X obj 200 72 osc~ 50;
#X obj 201 99 *~ 100;
#X obj 197 191 *~ 0;
#X obj 97 223 outlet~;
#X connect 0 0 6 1;
#X connect 1 0 2 0;
#X connect 2 0 6 0;
#X connect 3 0 1 0;
#X connect 4 0 5 0;
#X connect 5 0 3 0;
#X connect 6 0 7 0;
#X restore 102 258 pd test;
#X obj 152 259 tgl 15 0 empty empty empty 17 7 0 10 -262144 -1 -1 0
1;
#N canvas 1 93 576 352 delfilt 1;
#X obj 59 30 inlet~;
#X obj 31 261 outlet~;
#X obj 255 124 mtof;
#X floatatom 255 101 5 0 150 0 - #0-pit -, f 5;
#X text 307 100 <-- cutoff (pitch units);
#X text 318 147 <-- cutoff (Hertz);
#X floatatom 255 149 5 0 0 0 - - -, f 5;
#X text 310 70 white noise \, test signal;
#X obj 244 207 bp~;
#X text 285 209 band-pass filter;
#X floatatom 266 177 5 0 1000 0 - #0-q -, f 5;
#X text 318 175 <-- q;
#X obj 293 10 loadbang;
#X obj 224 35 random 127;
#X obj 324 37 random 25;
#X obj 418 39 + 1;
#X floatatom 451 46 5 0 0 0 - - -, f 5;
#X obj 249 235 delwrite~ maindel 500;
#X obj 31 232 delread~ maindel 500;
#X connect 0 0 8 0;
#X connect 2 0 6 0;
#X connect 3 0 2 0;
#X connect 6 0 8 1;
#X connect 8 0 17 0;
#X connect 10 0 8 2;
#X connect 12 0 13 0;
#X connect 12 0 14 0;
#X connect 13 0 2 0;
#X connect 14 0 15 0;
#X connect 15 0 8 2;
#X connect 15 0 16 0;
#X connect 18 0 1 0;
#X restore 46 114 pd delfilt;
#X obj 260 99 *~;
#X text 258 74 mic input;
#X text 305 212 processing;
#X obj 291 252 *~;
#X obj 330 97 *~;
#X text 337 79 other input;
#X obj 47 257 dac~ 1;
#X connect 0 0 3 0;
#X connect 0 0 8 0;
#X connect 0 1 4 0;
#X connect 1 0 10 0;
#X connect 2 0 1 0;
#X connect 3 0 10 0;
#X connect 7 0 10 0;
