#N canvas 670 100 780 439 10;
#X obj 46 84 adc~;
#X obj 47 257 dac~ 1;
#X obj 525 81 adc~;
#X text 567 80 paul/charles in;
#X text 588 121 variable delay;
#X text 605 170 all fxs in here;
#X obj 525 228 dac~;
#X text 570 228 outgoing !;
#X text 528 201 |;
#X text 531 147 |;
#X text 531 104 |;
#X text 385 36 alt structure using pauls supersick mixer routing?;
#X obj 523 171 affects;
#X obj 525 122 delfilt;
#X obj 136 115 fx-stutter;
#X obj 60 359 housekeeping;
#X obj 46 136 fx-delay;
#X obj 46 114 fx-filt;
#X connect 0 0 14 0;
#X connect 0 0 17 0;
#X connect 14 0 1 0;
#X connect 16 0 1 0;
#X connect 17 0 16 0;
