#N canvas 89 265 872 331 10;
#X obj 34 288 housekeeping;
#X obj 34 268 dac~ 1;
#X obj 34 168 fx-stutter;
#X obj 34 188 fx-freeze;
#X obj 34 28 adc~ 1;
#X text 62 66 saturday morning experimental rerouting!;
#X obj 422 221 *~ 1;
#X obj 423 86 *~ 1;
#X text 62 86 we can undo if unpopular!;
#X obj 34 128 fx-delay;
#X obj 34 148 fx-filt;
#X obj 419 140 fx-delay;
#X obj 419 118 fx-filt;
#X obj 509 119 fx-stutter;
#X obj 588 119 fx-freeze;
#X obj 34 210 fx-infreverb;
#X connect 2 0 3 0;
#X connect 3 0 15 0;
#X connect 4 0 9 0;
#X connect 7 0 12 0;
#X connect 7 0 13 0;
#X connect 7 0 14 0;
#X connect 9 0 10 0;
#X connect 10 0 2 0;
#X connect 11 0 6 0;
#X connect 12 0 11 0;
#X connect 13 0 6 0;
#X connect 14 0 6 0;
#X connect 15 0 1 0;
