#N canvas 109 225 780 439 10;
#X obj 482 52 adc~;
#X obj 483 265 dac~ 1;
#X obj 572 123 fx-stutter;
#X obj 45 329 housekeeping;
#X obj 482 144 fx-delay;
#X obj 482 122 fx-filt;
#X obj 651 123 fx-freeze;
#X obj 45 309 dac~ 1;
#X obj 45 199 fx-stutter;
#X obj 45 179 fx-delay;
#X obj 45 159 fx-filt;
#X obj 45 219 fx-freeze;
#X obj 45 69 adc~ 1;
#X text 45 377 we can drop if unpopular!;
#X text 45 357 saturday morning experimental rerouting!;
#X obj 485 225 *~ 1;
#X obj 486 90 *~ 1;
#X connect 0 0 16 0;
#X connect 2 0 15 0;
#X connect 4 0 15 0;
#X connect 5 0 4 0;
#X connect 6 0 15 0;
#X connect 8 0 11 0;
#X connect 9 0 8 0;
#X connect 10 0 9 0;
#X connect 11 0 7 0;
#X connect 12 0 10 0;
#X connect 16 0 5 0;
#X connect 16 0 2 0;
#X connect 16 0 6 0;
