#N canvas 65 195 872 331 10;
#X obj 34 288 housekeeping;
#X obj 34 268 dac~ 1;
#X obj 34 168 fx-stutter;
#X obj 34 188 fx-freeze;
#X obj 34 28 adc~ 1;
#X text 62 66 saturday morning experimental rerouting!;
#X text 62 86 we can undo if unpopular!;
#X obj 34 128 fx-delay;
#X obj 34 148 fx-filt;
#X obj 34 210 fx-infreverb;
#N canvas 0 50 450 300 testingtime 0;
#N canvas 0 50 539 448 tests 0;
#X obj 67 33 inlet;
#X obj 309 189 inlet;
#X obj 235 207 line~;
#X obj 235 230 cos~;
#X obj 235 68 loadbang;
#X msg 235 91 -0.25;
#X obj 235 276 *~;
#X obj 186 309 hip~ 5;
#X floatatom 308 218 0 0 0 0 - - -;
#X obj 308 264 osc~ 440;
#X obj 308 241 mtof;
#X obj 235 253 *~ 0.1;
#X obj 308 299 *~;
#X obj 326 325 *~;
#X obj 292 330 *~;
#X msg 279 150 -0.25 \, 0.25 \$1;
#X obj 41 148 biquad~ 0 0 1 -1 0;
#X obj 63 70 t b;
#X obj 104 72 del 3;
#X obj 57 101 1;
#X obj 96 101 0;
#X obj 41 355 outlet~;
#X obj 279 126 inlet;
#X obj 40 175 *~;
#X connect 0 0 17 0;
#X connect 1 0 8 0;
#X connect 2 0 3 0;
#X connect 3 0 11 0;
#X connect 4 0 5 0;
#X connect 5 0 2 0;
#X connect 6 0 7 0;
#X connect 7 0 21 0;
#X connect 8 0 10 0;
#X connect 9 0 6 1;
#X connect 9 0 12 0;
#X connect 9 0 12 1;
#X connect 9 0 13 0;
#X connect 10 0 9 0;
#X connect 11 0 6 0;
#X connect 12 0 13 1;
#X connect 12 0 6 1;
#X connect 12 0 14 0;
#X connect 12 0 14 1;
#X connect 13 0 6 1;
#X connect 14 0 6 1;
#X connect 15 0 2 0;
#X connect 16 0 23 0;
#X connect 17 0 18 0;
#X connect 17 0 19 0;
#X connect 18 0 20 0;
#X connect 19 0 16 0;
#X connect 19 0 23 1;
#X connect 20 0 16 0;
#X connect 20 0 23 1;
#X connect 22 0 15 0;
#X connect 23 0 21 0;
#X restore 135 168 pd tests;
#X msg 174 49 10;
#X msg 172 76 20;
#X msg 171 104 100;
#X msg 170 129 500;
#X obj 135 29 bng 15 250 50 0 empty empty empty 0 -6 0 8 -262144 -1
-1;
#X text 155 23 impulse;
#X floatatom 214 135 0 0 0 0 - - -;
#X text 213 49 tone;
#X text 214 66 bursts;
#X obj 133 212 outlet~;
#X connect 0 0 10 0;
#X connect 1 0 0 1;
#X connect 2 0 0 1;
#X connect 3 0 0 1;
#X connect 4 0 0 1;
#X connect 5 0 0 0;
#X connect 7 0 0 2;
#X restore 226 28 pd testingtime;
#X obj 34 237 fx-mastervol;
#X connect 2 0 3 0;
#X connect 3 0 9 0;
#X connect 4 0 7 0;
#X connect 7 0 8 0;
#X connect 8 0 2 0;
#X connect 9 0 11 0;
#X connect 11 0 1 0;
