#N canvas 42 131 953 428 10;
#X obj 34 349 housekeeping;
#X text 69 255 two inputs;
#X text 35 284 mic input -- stutter/reverb -- out;
#X text 32 308 loop input -- delay -- filter -- out;
#X obj 34 120 fx-stutter2;
#X obj 164 60 fx-delay2;
#X obj 164 120 fx-filt2;
#X obj 34 60 route-incoming;
#X obj 34 210 route-outgoing;
#X obj 164 40 adc~ 2;
#X obj 34 40 adc~ 1;
#X text 86 39 mic in;
#X text 216 39 loop in;
#X obj 34 230 dac~ 1;
#X text 360 37 guide to nanokontrol;
#X text 471 63 only first three strips are used;
#X obj 386 121 bng 15 250 50 0 empty empty empty 17 7 0 10 -262144
-1 -1;
#X obj 367 174 tgl 15 0 empty empty empty 17 7 0 10 -262144 -1 -1 0
1;
#X obj 366 239 tgl 15 0 empty empty empty 17 7 0 10 -262144 -1 -1 0
1;
#X obj 398 150 vsl 15 128 0 127 0 0 empty empty empty 0 -9 0 10 -262144
-1 -1 0 1;
#X obj 544 122 bng 15 250 50 0 empty empty empty 17 7 0 10 -262144
-1 -1;
#X obj 525 175 tgl 15 0 empty empty empty 17 7 0 10 -262144 -1 -1 0
1;
#X obj 524 240 tgl 15 0 empty empty empty 17 7 0 10 -262144 -1 -1 0
1;
#X obj 556 151 vsl 15 128 0 127 0 0 empty empty empty 0 -9 0 10 -262144
-1 -1 0 1;
#X obj 716 124 bng 15 250 50 0 empty empty empty 17 7 0 10 -262144
-1 -1;
#X obj 697 177 tgl 15 0 empty empty empty 17 7 0 10 -262144 -1 -1 0
1;
#X obj 696 242 tgl 15 0 empty empty empty 17 7 0 10 -262144 -1 -1 0
1;
#X obj 728 153 vsl 15 128 0 127 0 0 empty empty empty 0 -9 0 10 -262144
-1 -1 0 1;
#X text 351 84 1) input/stutt;
#X text 523 89 2) filt;
#X text 710 87 3) delay;
#X text 336 301 1-pot: incoming amp;
#X text 336 321 1-b1: incoming cut;
#X text 336 341 1-b2: stutt sample;
#X text 336 361 1-fader: stutt wet/dry;
#X text 503 364 2-fader: filt freq;
#X text 503 344 2-b2: NUTHING;
#X text 503 324 2-b1: filt on/off;
#X text 503 304 2-pot: filt q;
#X text 675 365 3-fader: loop output level;
#X text 675 345 3-b2: testtone;
#X text 675 325 3-b1: outgoing cut;
#X text 675 305 3-pot: delay amount;
#X connect 4 0 8 0;
#X connect 5 0 6 0;
#X connect 6 0 8 0;
#X connect 7 0 4 0;
#X connect 8 0 13 0;
#X connect 9 0 5 0;
#X connect 10 0 7 0;
