#N canvas 567 46 882 438 12;
#X obj 100 100 cnv 15 680 240 empty empty PiParty 4 12 0 14 #c7c6ff #404040 0;
#X obj 143 150 hsl 30 15 0 127 0 0 knob_one_out knob_one_in 1 -2 -8 0 10 #e3c6ff #2f004d #2f004d 0 1;
#X obj 160 172 vsl 15 128 0 127 0 0 slider_one_out slider_one_in empty 0 -9 0 10 #e3c6ff #2f004d #000000 0 1;
#X obj 140 170 tgl 15 0 latch_one_out latch_one_in empty 17 7 0 10 #e3c6ff #2f004d #000000 0 1;
#X obj 140 190 tgl 15 0 moment_one_out moment_one_in empty 17 7 0 10 #e3c6ff #2f004d #000000 0 1;
#X obj 213 150 hsl 30 15 0 127 0 0 knob_two_out knob_two_in 2 -2 -8 0 10 #e3c6ff #2f004d #2f004d 0 1;
#X obj 230 172 vsl 15 128 0 127 0 0 slider_two_out slider_two_in empty 0 -9 0 10 #e3c6ff #2f004d #000000 0 1;
#X obj 210 170 tgl 15 0 latch_two_out latch_two_in empty 17 7 0 10 #e3c6ff #2f004d #000000 0 1;
#X obj 210 190 tgl 15 0 moment_two_out moment_two_in empty 17 7 0 10 #e3c6ff #2f004d #000000 0 1;
#X obj 283 150 hsl 30 15 0 127 0 0 knob_three_out knob_three_in 3 -2 -8 0 10 #e3c6ff #2f004d #2f004d 0 1;
#X obj 300 172 vsl 15 128 0 127 0 0 slider_three_out slider_three_in empty 0 -9 0 10 #e3c6ff #2f004d #000000 0 1;
#X obj 280 170 tgl 15 0 latch_three_out latch_three_in empty 17 7 0 10 #e3c6ff #2f004d #000000 0 1;
#X obj 280 190 tgl 15 0 moment_three_out moment_three_in empty 17 7 0 10 #e3c6ff #2f004d #000000 0 1;
#X obj 353 150 hsl 30 15 0 127 0 0 knob_four_out knob_four_in 4 -2 -8 0 10 #e3c6ff #2f004d #2f004d 0 1;
#X obj 370 172 vsl 15 128 0 127 0 0 slider_four_out slider_four_in empty 0 -9 0 10 #e3c6ff #2f004d #000000 0 1;
#X obj 350 170 tgl 15 0 latch_four_out latch_four_in empty 17 7 0 10 #e3c6ff #2f004d #000000 0 1;
#X obj 350 190 tgl 15 0 moment_four_out moment_four_in empty 17 7 0 10 #e3c6ff #2f004d #000000 0 1;
#X obj 423 150 hsl 30 15 0 127 0 0 knob_five_out knob_five_in 5 -2 -8 0 10 #e3c6ff #2f004d #2f004d 0 1;
#X obj 440 172 vsl 15 128 0 127 0 0 slider_five_out slider_five_in empty 0 -9 0 10 #e3c6ff #2f004d #000000 0 1;
#X obj 420 170 tgl 15 0 latch_five_out latch_five_in empty 17 7 0 10 #e3c6ff #2f004d #000000 0 1;
#X obj 420 190 tgl 15 0 moment_five_out moment_five_in empty 17 7 0 10 #e3c6ff #2f004d #000000 0 1;
#X obj 493 150 hsl 30 15 0 127 0 0 knob_six_out knob_six_in 6 -2 -8 0 10 #e3c6ff #2f004d #2f004d 0 1;
#X obj 510 172 vsl 15 128 0 127 0 0 slider_six_out slider_six_in empty 0 -9 0 10 #e3c6ff #2f004d #000000 0 1;
#X obj 490 170 tgl 15 0 latch_six_out latch_six_in empty 17 7 0 10 #e3c6ff #2f004d #000000 0 1;
#X obj 490 190 tgl 15 0 moment_six_out moment_six_in empty 17 7 0 10 #e3c6ff #2f004d #000000 0 1;
#X obj 563 150 hsl 30 15 0 127 0 0 knob_seven_out knob_seven_in 7 -2 -8 0 10 #e3c6ff #2f004d #2f004d 0 1;
#X obj 580 172 vsl 15 128 0 127 0 0 slider_seven_out slider_seven_in empty 0 -9 0 10 #e3c6ff #2f004d #000000 0 1;
#X obj 560 170 tgl 15 0 latch_seven_out latch_seven_in empty 17 7 0 10 #e3c6ff #2f004d #000000 0 1;
#X obj 560 190 tgl 15 0 moment_seven_out moment_seven_in empty 17 7 0 10 #e3c6ff #2f004d #000000 0 1;
#X obj 633 150 hsl 30 15 0 127 0 0 knob_eight_out knob_eight_in 8 -2 -8 0 10 #e3c6ff #2f004d #2f004d 0 1;
#X obj 650 172 vsl 15 128 0 127 0 0 slider_eight_out slider_eight_in empty 0 -9 0 10 #e3c6ff #2f004d #000000 0 1;
#X obj 630 170 tgl 15 0 latch_eight_out latch_eight_in empty 17 7 0 10 #e3c6ff #2f004d #000000 0 1;
#X obj 630 190 tgl 15 0 moment_eight_out moment_eight_in empty 17 7 0 10 #e3c6ff #2f004d #000000 0 1;
#X obj 703 150 hsl 30 15 0 127 0 0 knob_nine_out knob_nine_in 9 -2 -8 0 10 #e3c6ff #2f004d #2f004d 0 1;
#X obj 720 172 vsl 15 128 0 127 0 0 slider_nine_out slider_nine_in empty 0 -9 0 10 #e3c6ff #2f004d #000000 0 1;
#X obj 700 170 tgl 15 0 latch_nine_out latch_nine_in empty 17 7 0 10 #e3c6ff #2f004d #000000 0 1;
#X obj 700 190 tgl 15 0 moment_nine_out moment_nine_in empty 17 7 0 10 #e3c6ff #2f004d #000000 0 1;
#N canvas -10 24 960 455 midi_in 0;
#X obj 38 124 s knob_one_in;
#X obj 48 64 loadbang;
#X msg 48 94 0;
#X obj 38 34 ctlin 1;
#X obj 48 184 loadbang;
#X msg 48 214 0;
#X obj 38 154 ctlin 2;
#X obj 38 244 s knob_two_in;
#X obj 48 304 loadbang;
#X msg 48 334 0;
#X obj 48 424 loadbang;
#X msg 48 454 0;
#X obj 38 274 ctlin 3;
#X obj 38 394 ctlin 4;
#X obj 38 364 s knob_three_in;
#X obj 38 484 s knob_four_in;
#X obj 48 544 loadbang;
#X msg 48 574 0;
#X obj 48 664 loadbang;
#X msg 48 694 0;
#X obj 48 784 loadbang;
#X msg 48 814 0;
#X obj 48 904 loadbang;
#X msg 48 934 0;
#X obj 38 514 ctlin 5;
#X obj 38 634 ctlin 6;
#X obj 38 754 ctlin 7;
#X obj 38 874 ctlin 8;
#X obj 48 1024 loadbang;
#X msg 48 1054 0;
#X obj 38 994 ctlin 9;
#X obj 38 1084 s knob_nine_in;
#X obj 38 964 s knob_eight_in;
#X obj 38 844 s knob_seven_in;
#X obj 38 724 s knob_six_in;
#X obj 38 604 s knob_five_in;
#X obj 178 64 loadbang;
#X msg 178 94 0;
#X obj 168 34 ctlin 10;
#X obj 168 124 s slider_one_in;
#X obj 178 184 loadbang;
#X msg 178 214 0;
#X obj 178 304 loadbang;
#X msg 178 334 0;
#X obj 178 424 loadbang;
#X msg 178 454 0;
#X obj 178 544 loadbang;
#X msg 178 574 0;
#X obj 178 664 loadbang;
#X msg 178 694 0;
#X obj 178 784 loadbang;
#X msg 178 814 0;
#X obj 178 904 loadbang;
#X msg 178 934 0;
#X obj 178 1024 loadbang;
#X msg 178 1054 0;
#X obj 168 154 ctlin 11;
#X obj 168 274 ctlin 12;
#X obj 168 394 ctlin 13;
#X obj 168 514 ctlin 14;
#X obj 168 634 ctlin 15;
#X obj 168 754 ctlin 16;
#X obj 168 874 ctlin 17;
#X obj 168 994 ctlin 18;
#X obj 168 1084 s slider_nine_in;
#X obj 168 964 s slider_eight_in;
#X obj 168 844 s slider_seven_in;
#X obj 168 724 s slider_six_in;
#X obj 168 604 s slider_five_in;
#X obj 168 484 s slider_four_in;
#X obj 168 364 s slider_three_in;
#X obj 168 244 s slider_two_in;
#X obj 378 64 loadbang;
#X msg 378 94 0;
#X obj 308 64 pack;
#X obj 308 94 route 0;
#X obj 308 34 notein;
#X obj 308 124 s latch_one_in;
#X obj 378 184 loadbang;
#X msg 378 214 0;
#X obj 308 184 pack;
#X obj 308 154 notein;
#X obj 378 304 loadbang;
#X msg 378 334 0;
#X obj 308 304 pack;
#X obj 308 274 notein;
#X obj 378 424 loadbang;
#X msg 378 454 0;
#X obj 308 424 pack;
#X obj 308 394 notein;
#X obj 378 544 loadbang;
#X msg 378 574 0;
#X obj 308 544 pack;
#X obj 308 514 notein;
#X obj 378 664 loadbang;
#X msg 378 694 0;
#X obj 308 664 pack;
#X obj 308 634 notein;
#X obj 378 784 loadbang;
#X msg 378 814 0;
#X obj 308 784 pack;
#X obj 308 754 notein;
#X obj 378 904 loadbang;
#X msg 378 934 0;
#X obj 308 904 pack;
#X obj 308 874 notein;
#X obj 378 1024 loadbang;
#X obj 308 1024 pack;
#X obj 308 994 notein;
#X obj 308 1084 s latch_nine_in;
#X msg 378 1054 0;
#X obj 308 1054 route 8;
#X obj 308 934 route 7;
#X obj 308 814 route 6;
#X obj 308 694 route 5;
#X obj 308 574 route 4;
#X obj 308 454 route 3;
#X obj 308 334 route 2;
#X obj 308 214 route 1;
#X obj 308 244 s latch_two_in;
#X obj 308 364 s latch_three_in;
#X obj 308 484 s latch_four_in;
#X obj 308 604 s latch_five_in;
#X obj 308 724 s latch_six_in;
#X obj 308 844 s latch_seven_in;
#X obj 308 964 s latch_eight_in;
#X obj 538 64 loadbang;
#X msg 538 94 0;
#X obj 468 64 pack;
#X obj 468 34 notein;
#X obj 538 184 loadbang;
#X msg 538 214 0;
#X obj 468 184 pack;
#X obj 468 154 notein;
#X obj 538 304 loadbang;
#X msg 538 334 0;
#X obj 468 304 pack;
#X obj 468 274 notein;
#X obj 538 424 loadbang;
#X msg 538 454 0;
#X obj 468 424 pack;
#X obj 468 394 notein;
#X obj 538 544 loadbang;
#X msg 538 574 0;
#X obj 468 544 pack;
#X obj 468 514 notein;
#X obj 538 664 loadbang;
#X msg 538 694 0;
#X obj 468 664 pack;
#X obj 468 634 notein;
#X obj 538 784 loadbang;
#X msg 538 814 0;
#X obj 468 784 pack;
#X obj 468 754 notein;
#X obj 538 904 loadbang;
#X msg 538 934 0;
#X obj 468 904 pack;
#X obj 468 874 notein;
#X obj 538 1024 loadbang;
#X obj 468 1024 pack;
#X obj 468 994 notein;
#X msg 538 1054 0;
#X obj 468 124 s moment_one_in;
#X obj 468 94 route 9;
#X obj 468 244 s moment_two_in;
#X obj 468 364 s moment_three_in;
#X obj 468 484 s moment_four_in;
#X obj 468 604 s moment_five_in;
#X obj 468 724 s moment_six_in;
#X obj 468 844 s moment_seven_in;
#X obj 468 964 s moment_eight_in;
#X obj 468 1084 s moment_nine_in;
#X obj 468 214 route 10;
#X obj 468 334 route 11;
#X obj 468 454 route 12;
#X obj 468 574 route 13;
#X obj 468 694 route 14;
#X obj 468 814 route 15;
#X obj 468 934 route 16;
#X obj 468 1054 route 17;
#X connect 1 0 2 0;
#X connect 2 0 0 0;
#X connect 3 0 0 0;
#X connect 4 0 5 0;
#X connect 5 0 7 0;
#X connect 6 0 7 0;
#X connect 8 0 9 0;
#X connect 9 0 14 0;
#X connect 10 0 11 0;
#X connect 11 0 15 0;
#X connect 12 0 14 0;
#X connect 13 0 15 0;
#X connect 16 0 17 0;
#X connect 17 0 35 0;
#X connect 18 0 19 0;
#X connect 19 0 34 0;
#X connect 20 0 21 0;
#X connect 21 0 33 0;
#X connect 22 0 23 0;
#X connect 23 0 32 0;
#X connect 24 0 35 0;
#X connect 25 0 34 0;
#X connect 26 0 33 0;
#X connect 27 0 32 0;
#X connect 28 0 29 0;
#X connect 29 0 31 0;
#X connect 30 0 31 0;
#X connect 36 0 37 0;
#X connect 37 0 39 0;
#X connect 38 0 39 0;
#X connect 40 0 41 0;
#X connect 41 0 71 0;
#X connect 42 0 43 0;
#X connect 43 0 70 0;
#X connect 44 0 45 0;
#X connect 45 0 69 0;
#X connect 46 0 47 0;
#X connect 47 0 68 0;
#X connect 48 0 49 0;
#X connect 49 0 67 0;
#X connect 50 0 51 0;
#X connect 51 0 66 0;
#X connect 52 0 53 0;
#X connect 53 0 65 0;
#X connect 54 0 55 0;
#X connect 55 0 64 0;
#X connect 56 0 71 0;
#X connect 57 0 70 0;
#X connect 58 0 69 0;
#X connect 59 0 68 0;
#X connect 60 0 67 0;
#X connect 61 0 66 0;
#X connect 62 0 65 0;
#X connect 63 0 64 0;
#X connect 72 0 73 0;
#X connect 73 0 77 0;
#X connect 74 0 75 0;
#X connect 75 0 77 0;
#X connect 76 0 74 0;
#X connect 76 1 74 1;
#X connect 78 0 79 0;
#X connect 79 0 119 0;
#X connect 80 0 118 0;
#X connect 81 0 80 0;
#X connect 81 1 80 1;
#X connect 82 0 83 0;
#X connect 83 0 120 0;
#X connect 84 0 117 0;
#X connect 85 0 84 0;
#X connect 85 1 84 1;
#X connect 86 0 87 0;
#X connect 87 0 121 0;
#X connect 88 0 116 0;
#X connect 89 0 88 0;
#X connect 89 1 88 1;
#X connect 90 0 91 0;
#X connect 91 0 122 0;
#X connect 92 0 115 0;
#X connect 93 0 92 0;
#X connect 93 1 92 1;
#X connect 94 0 95 0;
#X connect 95 0 123 0;
#X connect 96 0 114 0;
#X connect 97 0 96 0;
#X connect 97 1 96 1;
#X connect 98 0 99 0;
#X connect 99 0 124 0;
#X connect 100 0 113 0;
#X connect 101 0 100 0;
#X connect 101 1 100 1;
#X connect 102 0 103 0;
#X connect 103 0 125 0;
#X connect 104 0 112 0;
#X connect 105 0 104 0;
#X connect 105 1 104 1;
#X connect 106 0 110 0;
#X connect 107 0 111 0;
#X connect 108 0 107 0;
#X connect 108 1 107 1;
#X connect 110 0 109 0;
#X connect 111 0 109 0;
#X connect 112 0 125 0;
#X connect 113 0 124 0;
#X connect 114 0 123 0;
#X connect 115 0 122 0;
#X connect 116 0 121 0;
#X connect 117 0 120 0;
#X connect 118 0 119 0;
#X connect 126 0 127 0;
#X connect 127 0 162 0;
#X connect 128 0 163 0;
#X connect 129 0 128 0;
#X connect 129 1 128 1;
#X connect 130 0 131 0;
#X connect 131 0 164 0;
#X connect 132 0 172 0;
#X connect 133 0 132 0;
#X connect 133 1 132 1;
#X connect 134 0 135 0;
#X connect 135 0 165 0;
#X connect 136 0 173 0;
#X connect 137 0 136 0;
#X connect 137 1 136 1;
#X connect 138 0 139 0;
#X connect 139 0 166 0;
#X connect 140 0 174 0;
#X connect 141 0 140 0;
#X connect 141 1 140 1;
#X connect 142 0 143 0;
#X connect 143 0 167 0;
#X connect 144 0 175 0;
#X connect 145 0 144 0;
#X connect 145 1 144 1;
#X connect 146 0 147 0;
#X connect 147 0 168 0;
#X connect 148 0 176 0;
#X connect 149 0 148 0;
#X connect 149 1 148 1;
#X connect 150 0 151 0;
#X connect 151 0 169 0;
#X connect 152 0 177 0;
#X connect 153 0 152 0;
#X connect 153 1 152 1;
#X connect 154 0 155 0;
#X connect 155 0 170 0;
#X connect 156 0 178 0;
#X connect 157 0 156 0;
#X connect 157 1 156 1;
#X connect 158 0 161 0;
#X connect 159 0 179 0;
#X connect 160 0 159 0;
#X connect 160 1 159 1;
#X connect 161 0 171 0;
#X connect 163 0 162 0;
#X connect 172 0 164 0;
#X connect 173 0 165 0;
#X connect 174 0 166 0;
#X connect 175 0 167 0;
#X connect 176 0 168 0;
#X connect 177 0 169 0;
#X connect 178 0 170 0;
#X connect 179 0 171 0;
#X restore 100 70 pd midi_in;
#N canvas 93 170 1665 731 audio_code 0;
#X obj 45 66 r latch_one_out;
#X obj 55 96 r moment_one_out;
#X obj 45 156 +;
#X obj 55 126 t b i;
#X msg 45 216 \$1 10;
#X obj 45 246 line~;
#X obj 35 36 osc~ 300;
#X obj 35 276 *~;
#X obj 195 156 +;
#X obj 205 126 t b i;
#X msg 195 216 \$1 10;
#X obj 195 246 line~;
#X obj 185 276 *~;
#X obj 185 36 osc~ 330;
#X obj 195 66 r latch_two_out;
#X obj 205 96 r moment_two_out;
#X obj 345 156 +;
#X obj 355 126 t b i;
#X msg 345 216 \$1 10;
#X obj 345 246 line~;
#X obj 335 276 *~;
#X obj 495 156 +;
#X obj 505 126 t b i;
#X msg 495 216 \$1 10;
#X obj 495 246 line~;
#X obj 485 276 *~;
#X obj 335 36 osc~ 360;
#X obj 485 36 osc~ 390;
#X obj 345 66 r latch_three_out;
#X obj 355 96 r moment_three_out;
#X obj 495 66 r latch_four_out;
#X obj 505 96 r moment_four_out;
#X obj 645 156 +;
#X obj 655 126 t b i;
#X msg 645 216 \$1 10;
#X obj 645 246 line~;
#X obj 635 276 *~;
#X obj 795 156 +;
#X obj 805 126 t b i;
#X msg 795 216 \$1 10;
#X obj 795 246 line~;
#X obj 785 276 *~;
#X obj 945 156 +;
#X obj 955 126 t b i;
#X msg 945 216 \$1 10;
#X obj 945 246 line~;
#X obj 935 276 *~;
#X obj 1095 156 +;
#X obj 1105 126 t b i;
#X msg 1095 216 \$1 10;
#X obj 1095 246 line~;
#X obj 1085 276 *~;
#X obj 635 36 osc~ 420;
#X obj 785 36 osc~ 450;
#X obj 935 36 osc~ 480;
#X obj 1085 36 osc~ 510;
#X obj 645 66 r latch_five_out;
#X obj 655 96 r moment_five_out;
#X obj 795 66 r latch_six_out;
#X obj 805 96 r moment_six_out;
#X obj 945 66 r latch_seven_out;
#X obj 955 96 r moment_seven_out;
#X obj 1095 66 r latch_eight_out;
#X obj 1105 96 r moment_eight_out;
#X obj 1255 156 +;
#X obj 1265 126 t b i;
#X msg 1255 216 \$1 10;
#X obj 1255 246 line~;
#X obj 1245 276 *~;
#X obj 1245 36 osc~ 540;
#X obj 1255 66 r latch_nine_out;
#X obj 1265 96 r moment_nine_out;
#X obj 45 186 clip 0 0.1;
#X obj 195 186 clip 0 0.1;
#X obj 345 186 clip 0 0.1;
#X obj 495 186 clip 0 0.1;
#X obj 645 186 clip 0 0.1;
#X obj 795 186 clip 0 0.1;
#X obj 945 186 clip 0 0.1;
#X obj 1095 186 clip 0 0.1;
#X obj 1255 186 clip 0 0.1;
#X obj 35 346 adc~ 1;
#X obj 35 646 dac~ 1;
#X obj 785 306 dac~ 1;
#X obj 635 306 dac~ 1;
#X obj 485 306 dac~ 1;
#X obj 335 306 dac~ 1;
#X obj 185 306 dac~ 1;
#X obj 35 306 dac~ 1;
#X obj 935 306 dac~ 1;
#X obj 1085 306 dac~ 1;
#X obj 1245 306 dac~ 1;
#X connect 0 0 2 0;
#X connect 1 0 3 0;
#X connect 2 0 72 0;
#X connect 3 0 2 0;
#X connect 3 1 2 1;
#X connect 4 0 5 0;
#X connect 5 0 7 1;
#X connect 6 0 7 0;
#X connect 7 0 88 0;
#X connect 8 0 73 0;
#X connect 9 0 8 0;
#X connect 9 1 8 1;
#X connect 10 0 11 0;
#X connect 11 0 12 1;
#X connect 12 0 87 0;
#X connect 13 0 12 0;
#X connect 14 0 8 0;
#X connect 15 0 9 0;
#X connect 16 0 74 0;
#X connect 17 0 16 0;
#X connect 17 1 16 1;
#X connect 18 0 19 0;
#X connect 19 0 20 1;
#X connect 20 0 86 0;
#X connect 21 0 75 0;
#X connect 22 0 21 0;
#X connect 22 1 21 1;
#X connect 23 0 24 0;
#X connect 24 0 25 1;
#X connect 25 0 85 0;
#X connect 26 0 20 0;
#X connect 27 0 25 0;
#X connect 28 0 16 0;
#X connect 29 0 17 0;
#X connect 30 0 21 0;
#X connect 31 0 22 0;
#X connect 32 0 76 0;
#X connect 33 0 32 0;
#X connect 33 1 32 1;
#X connect 34 0 35 0;
#X connect 35 0 36 1;
#X connect 36 0 84 0;
#X connect 37 0 77 0;
#X connect 38 0 37 0;
#X connect 38 1 37 1;
#X connect 39 0 40 0;
#X connect 40 0 41 1;
#X connect 41 0 83 0;
#X connect 42 0 78 0;
#X connect 43 0 42 0;
#X connect 43 1 42 1;
#X connect 44 0 45 0;
#X connect 45 0 46 1;
#X connect 46 0 89 0;
#X connect 47 0 79 0;
#X connect 48 0 47 0;
#X connect 48 1 47 1;
#X connect 49 0 50 0;
#X connect 50 0 51 1;
#X connect 51 0 90 0;
#X connect 52 0 36 0;
#X connect 53 0 41 0;
#X connect 54 0 46 0;
#X connect 55 0 51 0;
#X connect 56 0 32 0;
#X connect 57 0 33 0;
#X connect 58 0 37 0;
#X connect 59 0 38 0;
#X connect 60 0 42 0;
#X connect 61 0 43 0;
#X connect 62 0 47 0;
#X connect 63 0 48 0;
#X connect 64 0 80 0;
#X connect 65 0 64 0;
#X connect 65 1 64 1;
#X connect 66 0 67 0;
#X connect 67 0 68 1;
#X connect 68 0 91 0;
#X connect 69 0 68 0;
#X connect 70 0 64 0;
#X connect 71 0 65 0;
#X connect 72 0 4 0;
#X connect 73 0 10 0;
#X connect 74 0 18 0;
#X connect 75 0 23 0;
#X connect 76 0 34 0;
#X connect 77 0 39 0;
#X connect 78 0 44 0;
#X connect 79 0 49 0;
#X connect 80 0 66 0;
#X connect 81 0 82 0;
#X restore 100 350 pd audio_code;
#N canvas 809 356 701 441 readme 0;
#X text 53 44 Core wiring now in place \, now to add the effects units themselves. How does this integrate? ADC flows to DAC via nine modules which are hard on/off from trigger buttons. They each have two modulators (dial and slider) \, and can be worked on individually.;
#X restore 100 380 pd readme;
#X coords 0 -1 1 1 680 240 1 100 100;
