#N canvas 300 167 721 475 10;
#X obj 415 266 *~;
#X obj 425 46 notein 1;
#X obj 425 66 pack 0 0;
#X obj 425 106 tgl 15 0 empty empty empty 17 7 0 10 -262144 -1 -1 0
1;
#X obj 491 34 loadbang;
#X msg 496 60 0;
#X msg 423 199 \$1 5;
#X obj 425 236 line~;
#X obj 63 58 inlet~;
#X obj 203 58 inlet~;
#X obj 425 86 route 11;
#X obj 82 397 outlet~;
#X obj 264 149 osc~ 666;
#X text 457 112 testtone (default off);
#X connect 0 0 11 0;
#X connect 1 0 2 0;
#X connect 1 1 2 1;
#X connect 2 0 10 0;
#X connect 3 0 6 0;
#X connect 4 0 5 0;
#X connect 5 0 3 0;
#X connect 6 0 7 0;
#X connect 7 0 0 1;
#X connect 8 0 11 0;
#X connect 9 0 11 0;
#X connect 10 0 3 0;
#X connect 12 0 0 0;
