#N canvas 138 144 519 295 10;
#X obj 123 25 notein 1;
#X obj 123 45 pack 0 0;
#X obj 43 45 ctlin 1;
#X obj 123 145 tgl 15 0 empty empty empty 17 7 0 10 -262144 -1 -1 0
1;
#X obj 123 85 route 0;
#X msg 43 145 \$1 5;
#X obj 43 165 line~;
#X obj 33 185 *~;
#X obj 43 125 / 127;
#X obj 53 85 loadbang;
#X msg 53 105 127;
#X msg 123 165 \$1 5;
#X obj 123 185 line~;
#X obj 33 205 *~;
#X obj 133 105 loadbang;
#X msg 133 125 0;
#X obj 33 225 outlet~;
#X obj 46 66 hsl 128 15 0 127 0 0 empty empty empty -2 -8 0 10 -262144
-1 -1 4000 1;
#X text 186 68 incoming amplitude;
#X text 153 145 incoming killswitch (default off);
#X obj 33 25 inlet~;
#X connect 0 0 1 0;
#X connect 0 1 1 1;
#X connect 1 0 4 0;
#X connect 2 0 17 0;
#X connect 3 0 11 0;
#X connect 4 0 3 0;
#X connect 5 0 6 0;
#X connect 6 0 7 1;
#X connect 7 0 13 0;
#X connect 8 0 5 0;
#X connect 9 0 10 0;
#X connect 10 0 8 0;
#X connect 11 0 12 0;
#X connect 12 0 13 1;
#X connect 13 0 16 0;
#X connect 14 0 15 0;
#X connect 15 0 3 0;
#X connect 17 0 8 0;
#X connect 20 0 7 0;
